<svg width="185" height="122" viewBox="0 0 185 122" fill="none" xmlns="http://www.w3.org/2000/svg">
<path d="M149.5 122H6.5C2.91027 122 0 119.094 0 115.51V37.4902C0 33.9059 2.91027 31 6.5 31H149.5C153.09 31 156 33.9059 156 37.4902V115.51C156 119.094 153.09 122 149.5 122Z" fill="#E9F3FE"/>
<path d="M130 75.3529C130 73.8911 128.779 72.7059 127.273 72.7059H92.7273C91.2211 72.7059 90 73.8911 90 75.3529C90 76.8148 91.2211 78 92.7273 78H127.273C128.779 78 130 76.8148 130 75.3529ZM109.091 68.2941H92.7273C91.2211 68.2941 90 67.1089 90 65.6471C90 64.1852 91.2211 63 92.7273 63H109.091C110.597 63 111.818 64.1852 111.818 65.6471C111.818 67.1089 110.597 68.2941 109.091 68.2941Z" fill="#76B6FA"/>
<path d="M96.832 94.7773C96.832 96.5695 95.3769 98.0225 93.582 98.0225C91.7872 98.0225 90.332 96.5695 90.332 94.7773C90.332 92.9852 91.7872 91.5322 93.582 91.5322C95.3769 91.5322 96.832 92.9852 96.832 94.7773Z" fill="#0365FF"/>
<path d="M96.832 107.757C96.832 109.549 95.3769 111.002 93.582 111.002C91.7872 111.002 90.332 109.549 90.332 107.757C90.332 105.965 91.7872 104.512 93.582 104.512C95.3769 104.512 96.832 105.965 96.832 107.757Z" fill="#0365FF"/>
<path d="M137.999 94.7773C137.999 96.5695 136.544 98.0225 134.749 98.0225H106.582C104.787 98.0225 103.332 96.5695 103.332 94.7773C103.332 92.9852 104.787 91.5322 106.582 91.5322H134.749C136.544 91.5322 137.999 92.9852 137.999 94.7773ZM134.749 104.513H106.582C104.787 104.513 103.332 105.966 103.332 107.758C103.332 109.55 104.787 111.003 106.582 111.003H134.749C136.544 111.003 137.999 109.55 137.999 107.758C137.999 105.966 136.544 104.513 134.749 104.513Z" fill="#A7D0FC"/>
<path d="M83.1994 76.4997C83.1994 97.0504 66.5143 113.71 45.9327 113.71C25.3511 113.71 8.66602 97.0504 8.66602 76.4997C8.66602 55.9491 25.3511 39.2891 45.9327 39.2891C66.5143 39.2891 83.1994 55.9491 83.1994 76.4997Z" fill="#A7D0FC"/>
<path d="M16.4141 76.5002C16.4141 60.0709 29.8769 46.781 46.3886 47.0298C61.9912 47.2652 74.8586 59.8216 75.4302 75.3921C75.8119 85.7955 70.7913 95.0528 62.9484 100.587C62.1771 101.131 61.1588 101.161 60.3346 100.7C56.0745 98.3178 51.1622 96.96 45.9323 96.96C40.7102 96.96 35.8049 98.3139 31.5495 100.69C30.7119 101.157 29.678 101.126 28.8949 100.572C21.3432 95.2332 16.4141 86.4415 16.4141 76.5002V76.5002Z" fill="#76B6FA"/>
<path d="M46.0988 84.1889C41.924 84.1889 38.5402 87.5682 38.5402 91.7362V101.449C38.5402 103.307 36.6543 104.549 34.927 103.856C32.688 102.957 30.5846 101.792 28.6562 100.399V91.7358C28.6562 87.5673 32.0406 84.1885 36.2149 84.1885H46.0988V84.1889Z" fill="#0956C6"/>
<path d="M63.2117 91.7363V100.4C58.3545 103.907 52.3862 105.974 45.9343 105.974C41.9077 105.974 38.0693 105.168 34.5723 103.711V91.7367C34.5723 87.5683 37.9566 84.1895 42.1313 84.1895H55.6531C59.8274 84.189 63.2117 87.5678 63.2117 91.7363V91.7363Z" fill="#0365FF"/>
<path d="M45.0362 91.2097L39.3262 84.5585C38.6684 83.7922 39.2135 82.6084 40.2245 82.6084H51.6441C52.6551 82.6084 53.2002 83.7922 52.5424 84.5585L46.8324 91.2101C46.3605 91.7601 45.5086 91.7601 45.0362 91.2097V91.2097Z" fill="#0956C6"/>
<path d="M60.511 70.7114V71.7896C60.511 73.2785 59.3024 74.4852 57.8113 74.4852C57.5448 74.4852 57.2874 74.4463 57.0443 74.3745C55.7214 77.8606 52.7994 80.5618 49.1728 81.586V85.2673C49.1728 87.0538 47.7225 88.502 45.9332 88.502C44.144 88.502 42.6936 87.0538 42.6936 85.2673V81.586C39.0671 80.5618 36.1451 77.8606 34.8221 74.3745C34.579 74.4463 34.3216 74.4852 34.0551 74.4852C32.564 74.4852 31.3555 73.2785 31.3555 71.7896V70.7114C31.3555 69.2225 32.564 68.0158 34.0551 68.0158V65.8593C34.0551 59.3089 39.373 53.999 45.9332 53.999C52.4935 53.999 57.8113 59.3089 57.8113 65.8593V68.0158C59.3024 68.0158 60.511 69.2225 60.511 70.7114Z" fill="#F2D1A5"/>
<path d="M57.8106 65.8592V70.1721C57.8106 75.5106 54.278 80.0252 49.4199 81.5127C44.5618 80.0247 41.0293 75.5106 41.0293 70.1721V65.8592C41.0293 60.5207 44.5618 56.0061 49.4199 54.5186C54.2785 56.0061 57.8106 60.5207 57.8106 65.8592Z" fill="#FFE4C2"/>
<path d="M43.3451 69.5597C43.3451 70.3754 42.683 71.0365 41.8661 71.0365H40.3872C39.5703 71.0365 38.9082 70.3754 38.9082 69.5597C38.9082 68.7441 39.5703 68.083 40.3872 68.083H41.8661C42.683 68.0834 43.3451 68.7446 43.3451 69.5597ZM51.4788 68.0834H49.9998C49.183 68.0834 48.5208 68.7446 48.5208 69.5602C48.5208 70.3758 49.183 71.0369 49.9998 71.0369H51.4788C52.2956 71.0369 52.9577 70.3758 52.9577 69.5602C52.9577 68.7446 52.2952 68.0834 51.4788 68.0834ZM47.5597 74.2851H44.3062C43.9795 74.2851 43.7147 74.5494 43.7147 74.8757V75.0232C43.7147 76.2464 44.7079 77.2381 45.933 77.2381C47.158 77.2381 48.1512 76.2464 48.1512 75.0232V74.8757C48.1512 74.5494 47.8864 74.2851 47.5597 74.2851V74.2851Z" fill="#F2BB88"/>
<path d="M41.5002 62.5466C40.9386 62.3562 40.3935 62.1303 39.867 61.872C38.6173 65.5753 36.4809 68.0161 34.0551 68.0161C34.0486 68.0161 34.0421 68.0161 34.0356 68.0161C32.9896 68.0105 32.1641 67.117 32.1641 66.0725V65.5165C32.1641 57.9233 38.3291 51.7676 45.9337 51.7676C48.1298 51.7676 50.2063 52.2812 52.0484 53.1941C52.971 53.6515 42.8912 63.0186 41.5002 62.5466V62.5466Z" fill="#784132"/>
<path d="M57.8111 68.0158C55.3853 68.0158 53.249 65.575 51.9992 61.8717C50.1688 62.7699 48.1101 63.2744 45.933 63.2744C44.3821 63.2744 42.891 63.0183 41.5 62.5458C42.6137 58.7161 47.86 53.1934 52.0478 53.1934C56.5843 55.442 59.7026 60.1154 59.7026 65.5153V66.0713C59.7026 67.1158 58.8771 68.0093 57.831 68.0149C57.8241 68.0158 57.8176 68.0158 57.8111 68.0158V68.0158Z" fill="#915041"/>
<circle cx="148" cy="37" r="35.5" fill="#D9D9D9" stroke="white" stroke-width="3"/>
<g clip-path="url(#clip0_487_35207)">
<path d="M148 71C166.778 71 182 55.7777 182 37C182 18.2223 166.778 3 148 3C129.222 3 114 18.2223 114 37C114 55.7777 129.222 71 148 71Z" fill="#FD8087"/>
<path d="M149.97 70.9438C149.318 70.9809 148.661 71 148 71C129.223 71 114 55.7773 114 37C114 18.2227 129.223 3 148 3C148.661 3 149.318 3.01912 149.97 3.05605C132.11 4.07684 117.94 18.8836 117.94 37C117.94 55.1164 132.11 69.9232 149.97 70.9438Z" fill="#FE646F"/>
<path d="M148 65.527C163.755 65.527 176.527 52.755 176.527 36.9999C176.527 21.2447 163.755 8.47266 148 8.47266C132.245 8.47266 119.473 21.2447 119.473 36.9999C119.473 52.755 132.245 65.527 148 65.527Z" fill="#EEF5F6"/>
<path d="M152.076 65.2357C150.744 65.4285 149.383 65.527 148 65.527C132.27 65.527 119.473 52.7302 119.473 36.9999C119.473 21.2695 132.27 8.47266 148 8.47266C149.383 8.47266 150.744 8.5712 152.076 8.76405C138.269 10.7452 127.623 22.6528 127.623 36.9999C127.623 51.3469 138.269 63.2545 152.076 65.2357Z" fill="#DEDBEE"/>
<path d="M154.555 37.0001L161.562 29.9932C163.373 28.1827 163.373 25.2474 161.562 23.4369C159.752 21.6265 156.816 21.6265 155.006 23.4369L147.999 30.4438L140.992 23.4369C139.182 21.6265 136.246 21.6265 134.436 23.4369C132.626 25.2474 132.626 28.1828 134.436 29.9932L141.443 37.0001L134.436 44.007C132.626 45.8175 132.626 48.7528 134.436 50.5633C135.341 51.4686 136.528 51.9212 137.714 51.9212C138.901 51.9212 140.087 51.4686 140.992 50.5633L147.999 43.5562L155.006 50.5632C155.911 51.4684 157.098 51.921 158.284 51.921C159.471 51.921 160.657 51.4684 161.562 50.5632C163.373 48.7527 163.373 45.8174 161.562 44.0069L154.555 37.0001Z" fill="#FD8087"/>
<path d="M150.359 32.802L159.724 23.4364C160.006 23.155 160.316 22.9227 160.644 22.7288C158.865 21.6751 156.536 21.9075 155.007 23.4364L148 30.4435L150.359 32.802Z" fill="#FE646F"/>
<path d="M159.724 50.5628L150.359 41.1973L148 43.5559L155.007 50.5628C155.912 51.4681 157.099 51.9207 158.285 51.9207C159.103 51.9207 159.918 51.7003 160.644 51.2706C160.316 51.0767 160.005 50.8442 159.724 50.5628Z" fill="#FE646F"/>
<path d="M139.153 50.5627C137.343 48.7522 137.343 45.8169 139.153 44.0064L146.16 36.9996L139.153 29.9927C137.343 28.1822 137.343 25.2469 139.153 23.4364C139.435 23.1549 139.746 22.9227 140.073 22.7287C138.294 21.6751 135.965 21.9074 134.436 23.4364C132.626 25.2469 132.626 28.1823 134.436 29.9927L141.443 36.9996L134.436 44.0065C132.626 45.817 132.626 48.7523 134.436 50.5628C135.341 51.468 136.528 51.9207 137.714 51.9207C138.532 51.9207 139.347 51.7005 140.073 51.2706C139.745 51.0765 139.435 50.8441 139.153 50.5627Z" fill="#FE646F"/>
</g>
<defs>
<clipPath id="clip0_487_35207">
<rect width="68" height="68" fill="white" transform="translate(114 3)"/>
</clipPath>
</defs>
</svg>
