<svg width="124" height="125" viewBox="0 0 124 125" fill="none" xmlns="http://www.w3.org/2000/svg">
<g clip-path="url(#clip0_2446_6181)">
<mask id="path-2-inside-1_2446_6181" fill="white">
<path fill-rule="evenodd" clip-rule="evenodd" d="M14 -2C5.16344 -2 -2 5.16344 -2 14V111C-2 119.837 5.16344 127 14 127H110C118.837 127 126 119.837 126 111V14C126 5.16344 118.837 -2 110 -2H14ZM62 107C77.464 107 90 87.3005 90 63C90 38.6995 77.464 19 62 19C46.536 19 34 38.6995 34 63C34 87.3005 46.536 107 62 107Z"/>
</mask>
<path fill-rule="evenodd" clip-rule="evenodd" d="M14 -2C5.16344 -2 -2 5.16344 -2 14V111C-2 119.837 5.16344 127 14 127H110C118.837 127 126 119.837 126 111V14C126 5.16344 118.837 -2 110 -2H14ZM62 107C77.464 107 90 87.3005 90 63C90 38.6995 77.464 19 62 19C46.536 19 34 38.6995 34 63C34 87.3005 46.536 107 62 107Z" fill="#DEEBFF" fill-opacity="0.9"/>
<path d="M-1 14C-1 5.71573 5.71573 -1 14 -1V-3C4.61116 -3 -3 4.61116 -3 14H-1ZM-1 111V14H-3V111H-1ZM14 126C5.71573 126 -1 119.284 -1 111H-3C-3 120.389 4.61116 128 14 128V126ZM110 126H14V128H110V126ZM125 111C125 119.284 118.284 126 110 126V128C119.389 128 127 120.389 127 111H125ZM125 14V111H127V14H125ZM110 -1C118.284 -1 125 5.71573 125 14H127C127 4.61116 119.389 -3 110 -3V-1ZM14 -1H110V-3H14V-1ZM89 63C89 74.9895 85.9055 85.7969 80.9553 93.5758C75.9976 101.367 69.2715 106 62 106V108C70.1925 108 77.4664 102.784 82.6427 94.6496C87.8265 86.5036 91 75.3111 91 63H89ZM62 20C69.2715 20 75.9976 24.6334 80.9553 32.4242C85.9055 40.2031 89 51.0105 89 63H91C91 50.6889 87.8265 39.4964 82.6427 31.3504C77.4664 23.2163 70.1925 18 62 18V20ZM35 63C35 51.0105 38.0945 40.2031 43.0447 32.4242C48.0024 24.6334 54.7285 20 62 20V18C53.8075 18 46.5336 23.2163 41.3573 31.3504C36.1735 39.4964 33 50.6889 33 63H35ZM62 106C54.7285 106 48.0024 101.367 43.0447 93.5758C38.0945 85.7969 35 74.9895 35 63H33C33 75.3111 36.1735 86.5036 41.3573 94.6496C46.5336 102.784 53.8075 108 62 108V106Z" fill="#18294A" mask="url(#path-2-inside-1_2446_6181)"/>
</g>
<defs>
<clipPath id="clip0_2446_6181">
<rect width="124" height="124.498" rx="16" fill="white"/>
</clipPath>
</defs>
</svg>
