<svg width="185" height="121" viewBox="0 0 185 121" fill="none" xmlns="http://www.w3.org/2000/svg">
<path d="M149.5 121H6.5C2.91027 121 0 118.094 0 114.51V36.4902C0 32.9059 2.91027 30 6.5 30H149.5C153.09 30 156 32.9059 156 36.4902V114.51C156 118.094 153.09 121 149.5 121Z" fill="#E9F3FE"/>
<path d="M130 74.3529C130 72.8911 128.779 71.7059 127.273 71.7059H92.7273C91.2211 71.7059 90 72.8911 90 74.3529C90 75.8148 91.2211 77 92.7273 77H127.273C128.779 77 130 75.8148 130 74.3529ZM109.091 67.2941H92.7273C91.2211 67.2941 90 66.1089 90 64.6471C90 63.1852 91.2211 62 92.7273 62H109.091C110.597 62 111.818 63.1852 111.818 64.6471C111.818 66.1089 110.597 67.2941 109.091 67.2941Z" fill="#76B6FA"/>
<path d="M96.833 93.7773C96.833 95.5695 95.3779 97.0225 93.583 97.0225C91.7881 97.0225 90.333 95.5695 90.333 93.7773C90.333 91.9852 91.7881 90.5322 93.583 90.5322C95.3779 90.5322 96.833 91.9852 96.833 93.7773Z" fill="#0365FF"/>
<path d="M96.833 106.757C96.833 108.549 95.3779 110.002 93.583 110.002C91.7881 110.002 90.333 108.549 90.333 106.757C90.333 104.965 91.7881 103.512 93.583 103.512C95.3779 103.512 96.833 104.965 96.833 106.757Z" fill="#0365FF"/>
<path d="M138 93.7773C138 95.5695 136.545 97.0225 134.75 97.0225H106.583C104.788 97.0225 103.333 95.5695 103.333 93.7773C103.333 91.9852 104.788 90.5322 106.583 90.5322H134.75C136.545 90.5322 138 91.9852 138 93.7773ZM134.75 103.513H106.583C104.788 103.513 103.333 104.966 103.333 106.758C103.333 108.55 104.788 110.003 106.583 110.003H134.75C136.545 110.003 138 108.55 138 106.758C138 104.966 136.545 103.513 134.75 103.513Z" fill="#A7D0FC"/>
<path d="M83.1994 75.4997C83.1994 96.0504 66.5143 112.71 45.9327 112.71C25.3511 112.71 8.66602 96.0504 8.66602 75.4997C8.66602 54.9491 25.3511 38.2891 45.9327 38.2891C66.5143 38.2891 83.1994 54.9491 83.1994 75.4997Z" fill="#A7D0FC"/>
<path d="M16.4141 75.5002C16.4141 59.0709 29.8769 45.781 46.3886 46.0298C61.9912 46.2652 74.8586 58.8216 75.4302 74.3921C75.8119 84.7955 70.7913 94.0528 62.9484 99.5868C62.1771 100.131 61.1588 100.161 60.3346 99.7001C56.0745 97.3178 51.1622 95.96 45.9323 95.96C40.7102 95.96 35.8049 97.3139 31.5495 99.6898C30.7119 100.157 29.678 100.126 28.8949 99.5721C21.3432 94.2332 16.4141 85.4415 16.4141 75.5002V75.5002Z" fill="#76B6FA"/>
<path d="M46.0988 83.1889C41.924 83.1889 38.5402 86.5682 38.5402 90.7362V100.449C38.5402 102.307 36.6543 103.549 34.927 102.856C32.688 101.957 30.5846 100.792 28.6562 99.3994V90.7358C28.6562 86.5673 32.0406 83.1885 36.2149 83.1885H46.0988V83.1889Z" fill="#0956C6"/>
<path d="M63.2107 90.7363V99.3999C58.3535 102.907 52.3852 104.974 45.9333 104.974C41.9068 104.974 38.0683 104.168 34.5713 102.711V90.7367C34.5713 86.5683 37.9556 83.1895 42.1304 83.1895H55.6521C59.8264 83.189 63.2107 86.5678 63.2107 90.7363V90.7363Z" fill="#0365FF"/>
<path d="M45.0353 90.2097L39.3252 83.5585C38.6674 82.7922 39.2126 81.6084 40.2235 81.6084H51.6432C52.6541 81.6084 53.1993 82.7922 52.5415 83.5585L46.8314 90.2101C46.3595 90.7601 45.5076 90.7601 45.0353 90.2097V90.2097Z" fill="#0956C6"/>
<path d="M60.511 69.7114V70.7896C60.511 72.2785 59.3024 73.4852 57.8113 73.4852C57.5448 73.4852 57.2874 73.4463 57.0443 73.3745C55.7214 76.8606 52.7994 79.5618 49.1728 80.586V84.2673C49.1728 86.0538 47.7225 87.502 45.9332 87.502C44.144 87.502 42.6936 86.0538 42.6936 84.2673V80.586C39.0671 79.5618 36.1451 76.8606 34.8221 73.3745C34.579 73.4463 34.3216 73.4852 34.0551 73.4852C32.564 73.4852 31.3555 72.2785 31.3555 70.7896V69.7114C31.3555 68.2225 32.564 67.0158 34.0551 67.0158V64.8593C34.0551 58.3089 39.373 52.999 45.9332 52.999C52.4935 52.999 57.8113 58.3089 57.8113 64.8593V67.0158C59.3024 67.0158 60.511 68.2225 60.511 69.7114Z" fill="#F2D1A5"/>
<path d="M57.8115 64.8592V69.1721C57.8115 74.5106 54.279 79.0252 49.4209 80.5127C44.5628 79.0247 41.0303 74.5106 41.0303 69.1721V64.8592C41.0303 59.5207 44.5628 55.0061 49.4209 53.5186C54.2794 55.0061 57.8115 59.5207 57.8115 64.8592Z" fill="#FFE4C2"/>
<path d="M43.3451 68.5597C43.3451 69.3754 42.683 70.0365 41.8661 70.0365H40.3872C39.5703 70.0365 38.9082 69.3754 38.9082 68.5597C38.9082 67.7441 39.5703 67.083 40.3872 67.083H41.8661C42.683 67.0834 43.3451 67.7446 43.3451 68.5597ZM51.4788 67.0834H49.9998C49.183 67.0834 48.5208 67.7446 48.5208 68.5602C48.5208 69.3758 49.183 70.0369 49.9998 70.0369H51.4788C52.2956 70.0369 52.9577 69.3758 52.9577 68.5602C52.9577 67.7446 52.2952 67.0834 51.4788 67.0834ZM47.5597 73.2851H44.3062C43.9795 73.2851 43.7147 73.5494 43.7147 73.8757V74.0232C43.7147 75.2464 44.7079 76.2381 45.933 76.2381C47.158 76.2381 48.1512 75.2464 48.1512 74.0232V73.8757C48.1512 73.5494 47.8864 73.2851 47.5597 73.2851V73.2851Z" fill="#F2BB88"/>
<path d="M41.5002 61.5466C40.9386 61.3562 40.3935 61.1303 39.867 60.872C38.6173 64.5753 36.4809 67.0161 34.0551 67.0161C34.0486 67.0161 34.0421 67.0161 34.0356 67.0161C32.9896 67.0105 32.1641 66.117 32.1641 65.0725V64.5165C32.1641 56.9233 38.3291 50.7676 45.9337 50.7676C48.1298 50.7676 50.2063 51.2812 52.0484 52.1941C52.971 52.6515 42.8912 62.0186 41.5002 61.5466V61.5466Z" fill="#784132"/>
<path d="M57.8111 67.0158C55.3853 67.0158 53.249 64.575 51.9992 60.8717C50.1688 61.7699 48.1101 62.2744 45.933 62.2744C44.3821 62.2744 42.891 62.0183 41.5 61.5458C42.6137 57.7161 47.86 52.1934 52.0478 52.1934C56.5843 54.442 59.7026 59.1154 59.7026 64.5153V65.0713C59.7026 66.1158 58.8771 67.0093 57.831 67.0149C57.8241 67.0158 57.8176 67.0158 57.8111 67.0158V67.0158Z" fill="#915041"/>
<circle cx="148" cy="37" r="35.5" fill="#D9D9D9" stroke="white" stroke-width="3"/>
<g clip-path="url(#clip0_487_35208)">
<path d="M148 71C166.778 71 182 55.7777 182 37C182 18.2223 166.778 3 148 3C129.222 3 114 18.2223 114 37C114 55.7777 129.222 71 148 71Z" fill="#BBEC6C"/>
<path d="M148 3C147.31 3 146.626 3.02299 145.946 3.06348C163.768 4.12535 177.021 18.9119 177.021 37C177.021 55.0881 163.768 69.8746 145.946 70.9365C146.626 70.977 147.31 71 148 71C166.777 71 182 55.7777 182 37C182 18.2223 166.777 3 148 3Z" fill="#A2E62E"/>
<path d="M148 66.0214C164.028 66.0214 177.021 53.0283 177.021 37.0004C177.021 20.9726 164.028 7.97949 148 7.97949C131.973 7.97949 118.979 20.9726 118.979 37.0004C118.979 53.0283 131.973 66.0214 148 66.0214Z" fill="#4FC123"/>
<path d="M148 7.97949C147.31 7.97949 146.626 8.00535 145.947 8.05269C161.017 9.10621 172.915 21.6631 172.915 37.0004C172.915 52.3379 161.017 64.8947 145.947 65.9482C146.626 65.9957 147.31 66.0214 148 66.0214C164.028 66.0214 177.021 53.0282 177.021 37.0004C177.021 20.9727 164.028 7.97949 148 7.97949V7.97949Z" fill="#47A920"/>
<path d="M165.554 31.1643L147.03 49.6898C145.065 51.6532 141.883 51.6532 139.919 49.6898L130.446 40.2163C129.357 39.1286 129.357 37.3636 130.446 36.2759L133.207 33.5148V33.5135L134.143 32.5776C135.23 31.4899 136.995 31.4899 138.083 32.5776L142.824 37.3185C143.333 37.8288 144.161 37.8288 144.67 37.3185L158.189 23.7992C159.277 22.7115 161.042 22.7115 162.129 23.7992L165.554 27.2238C166.643 28.3129 166.643 30.0765 165.554 31.1643V31.1643Z" fill="#D1F19E"/>
<path d="M144.67 37.3184L143.101 38.8877C142.482 39.5075 141.479 39.5116 140.854 38.8973L136.056 34.1865C135.285 33.4149 134.176 33.1932 133.207 33.5147V33.5134L134.143 32.5775C135.231 31.4898 136.996 31.4898 138.083 32.5775L142.824 37.3184C143.333 37.8287 144.161 37.8287 144.67 37.3184V37.3184Z" fill="#BBEC6C"/>
<path d="M165.554 27.2244L162.13 23.7995C161.041 22.7114 159.277 22.7114 158.189 23.7995L157.304 24.685C158.101 24.6107 158.924 24.8783 159.534 25.4887L161.448 27.2245C162.536 28.3127 162.536 30.0768 161.448 31.165L144.459 48.3768C143.246 49.5897 141.568 50.0523 139.999 49.7666C141.968 51.6521 145.092 51.6276 147.029 49.6904L165.555 31.165C166.643 30.0768 166.643 28.3125 165.554 27.2244V27.2244Z" fill="#BBEC6C"/>
</g>
<defs>
<clipPath id="clip0_487_35208">
<rect width="68" height="68" fill="white" transform="translate(114 3)"/>
</clipPath>
</defs>
</svg>
